# xmcd
#
# Track frame offsets:
#	183
#	15108
#	27510
#	37138
#	48115
#	66365
#	77558
#	89563
#	102138
#	120888
#	131090
#	141590
#
# Disc length: 2044
#
# Revision: 2
# Processed by: cddbd v1.5.1PL0 Copyright (c) Steve Scherf et al.
# Submitted via: EasyCDDAExtractor 6.5.0.1
# Normalized: r1:DSETVAR1
#
DISCID=9b07fa0c
DTITLE=Various Artist - Super Country Hits - RTL4 Presenteert (TV CD)
DYEAR=1991
DGENRE=Country
TTITLE0=Jimmy Dean and Dottie West - Jackson
TTITLE1=Jim Reeves - I love you because
TTITLE2=Dottie West - Make the world go away
TTITLE3=Charlie Rich - She called me baby
TTITLE4=Skeeter Davis - If you could read my mind
TTITLE5=The Pridesmen - Ghost riders in the sky
TTITLE6=Waylon Jennings - You can have her
TTITLE7=Dolly Parton - In the ghetto
TTITLE8=Hank Snow - Frankie and johnny
TTITLE9=Jerry Reed - Red hot picker
TTITLE10=Connie Smith and Nat Stuckey - Young love
TTITLE11=Charley Pride - Folsom Prison Blues
EXTD=
EXTT0=
EXTT1=
EXTT2=
EXTT3=
EXTT4=
EXTT5=
EXTT6=
EXTT7=
EXTT8=
EXTT9=
EXTT10=
EXTT11=
PLAYORDER=
